# xmcd
#
# Track frame offsets:
# 150
# 11410
# 20724
# 31869
# 42783
# 55715
# 66930
# 75209
# 86991
# 97666
# 110568
# 118881
# 137033
# 151602
# 162324
# 170196
# 184448
# 200140
# 220065
# 228557
# 242956
# 253168
# 264423
#
# Disc length: 3718 seconds
#
#
# Revision: 0
# Processed by: cddbd v1.5.2PL0 Copyright (c) Steve Scherf et al.
# Submitted via: FreeRIP 2.951 
#
DISCID=3f0e8417
DTITLE=Roger Miller/Marty Robins - Country's Greatest
DYEAR=1900
DGENRE=Country
TTITLE0=King Of The Road
TTITLE1=Chug-A-Lug
TTITLE2=Everything's Comin' Up Roses
TTITLE3=Burnin' Bridges
TTITLE4=Heartaches by the Number
TTITLE5=A Woman and A Man
TTITLE6=You Don't Want My Love
TTITLE7=Walkin In The Sunshine
TTITLE8=Kansas City Star
TTITLE9=Lonesone Me
TTITLE10=Du-Wakka-Du
TTITLE11=Big Iron On His Hip
TTITLE12=Cool, Clear Water
TTITLE13=Billy The Kid
TTITLE14=160 Acres
TTITLE15=Goodbye to Flo
TTITLE16=Strawberry
TTITLE17=El Paso
TTITLE18=Sad as the Willow
TTITLE19=Forgiven
TTITLE20=Runnin' Gun
TTITLE21=Little Green Valley
TTITLE22=Utah's Last Ride
EXTD=
EXTT0=
EXTT1=
EXTT2=
EXTT3=
EXTT4=
EXTT5=
EXTT6=
EXTT7=
EXTT8=
EXTT9=
EXTT10=
EXTT11=
EXTT12=
EXTT13=
EXTT14=
EXTT15=
EXTT16=
EXTT17=
EXTT18=
EXTT19=
EXTT20=
EXTT21=
EXTT22=
PLAYORDER=
